# xmcd
#
# Track frame offsets:
#	150
#	18837
#	44612
#	64062
#	83950
#	109950
#	129700
#	153787
#	175750
#	193987
#	212850
#	232512
#
# Disc length: 3424 seconds
#
# Revision: 1
# Processed by: cddbd v1.5.2PL0 Copyright (c) Steve Scherf et al.
# Submitted via: audiograbber 1.83.01
#
DISCID=9e0d5e0c
DTITLE=Love Songs - Love Songs  CD 1
DYEAR=1999
DGENRE=Compilation
TTITLE0=Youssouf N`Dour and Neneh Cherry - 7 Seconds
TTITLE1=Wham - Where Did Your Heard Go
TTITLE2=Fugees - No Woman, No Cry
TTITLE3=Ten Sharp - You
TTITLE4=Spandau Ballet - Through The Barrecades
TTITLE5=Soul Asylum - Runaway Train
TTITLE6=Sophie B. Hawkins - Damn I Wish I Was your Lover
TTITLE7=Simon and Garfunkel - Bridge Over Troubled Water
TTITLE8=Billy Joel - Leningrad
TTITLE9=Berlin - Take My Breath Away
TTITLE10=Paul Young - Come Back And Stay
TTITLE11=Meat Loaf - Two Out Of Three Ain`t Bad
EXTD=
EXTT0=
EXTT1=
EXTT2=
EXTT3=
EXTT4=
EXTT5=
EXTT6=
EXTT7=
EXTT8=
EXTT9=
EXTT10=
EXTT11=
PLAYORDER=
